Simulation
nRows=46
nColumns=15
endheader
time  TH_x TH_y TH_z SC_y  SC_z  SC_x  AC_y  AC_z  AC_x  GH_y  GH_z  GH_yy  EL_x  PS_y
0.0  0.000000  0.000000  0.000000  -29.747400149594984  1.3995353056864752  -5.215588318047352  56.5508926778344  10.273264265048004  -2.411932314618863  30.782800774827535  16.02007368346522  9.478935451272362  27.104794174920503  0.000000
0.038999999999999986  0.000000  0.000000  0.000000  -29.282137937728695  1.8320109057937928  -5.4569966201636175  56.149375693005126  10.307418642520604  -2.1356331112472002  30.801719402781345  15.92038977503952  9.324220823340786  26.70083860452868  0.000000
0.07799999999999997  0.000000  0.000000  0.000000  -28.871570780990716  2.1643093170571177  -5.772336632061819  55.79136950615555  10.316253656019027  -1.8721975671262892  30.67401527471387  15.772771208399128  9.324112615646438  26.286070711631915  0.000000
0.11699999999999997  0.000000  0.000000  0.000000  -28.537481980228034  2.379792236812726  -6.145402243108258  55.53979912273682  10.355108027881545  -1.598702545337192  30.50685832491651  15.668606760667796  9.331818152468065  25.890623098876922  0.000000
0.15599999999999994  0.000000  0.000000  0.000000  -28.296334600057254  2.479507138796443  -6.5372878906817835  55.43687145612461  10.453698109858566  -1.3126444041935756  30.489223555675146  15.707779182824268  9.092250798225228  25.537772709156183  0.000000
0.19499999999999992  0.000000  0.000000  0.000000  -28.161310024333297  2.4909913247527564  -6.8975682285683835  55.490755157942864  10.6180135264123  -1.0190684653329827  30.8399849623371  15.975714940631141  8.33847645322988  25.247669728211573  0.000000
0.23399999999999993  0.000000  0.000000  0.000000  -28.128187265001177  2.453672560124397  -7.183951714677876  55.67451014024583  10.839602007911251  -0.7333844455034377  31.74895216691931  16.532266128703558  6.840317218482716  25.031140257271314  0.000000
0.2729999999999999  0.000000  0.000000  0.000000  -28.185541200981977  2.404695637778007  -7.36271161110781  55.950806433422535  11.097639254944658  -0.4730221206170647  33.2808569889213  17.412733726214316  4.50877756953816  24.883890618724603  0.000000
0.3119999999999999  0.000000  0.000000  0.000000  -28.303034745508803  2.374469000068365  -7.410801332667045  56.28093582135547  11.364345795577515  -0.2519302283250957  35.34292237176187  18.625717624562196  1.4183602108290871  24.79654704403274  0.000000
0.35099999999999987  0.000000  0.000000  0.000000  -28.435694023765585  2.379727324994254  -7.3115804811271925  56.63969189629843  11.612591301832348  -0.0803731621597711  37.70062078548068  20.153592751517554  -2.2003270685093144  24.758109832498967  0.000000
0.38999999999999985  0.000000  0.000000  0.000000  -28.527974249894744  2.424040518126981  -7.056862869531354  57.01068152037446  11.825647227972876  0.0346412351749008  40.06836291349492  21.952120155411105  -6.052275806498337  24.76397698403384  0.000000
0.4289999999999998  0.000000  0.000000  0.000000  -28.531683812523823  2.503977490580605  -6.644114225102065  57.38693099803515  11.999405121653956  0.08926100217011367  42.20603661914166  23.957077583605486  -9.870330518761529  24.816882739266443  0.000000
0.46799999999999986  0.000000  0.000000  0.000000  -28.415161959569954  2.6139429907656493  -6.071708288150476  57.76505335502159  12.136253803229476  0.08156386565832151  43.978637677993476  26.09632122454915  -13.480807062954904  24.913617078756655  0.000000
0.5069999999999998  0.000000  0.000000  0.000000  -28.16698301538246  2.7496073100150626  -5.3352471206594805  58.14287165292442  12.239755388207445  0.008822740656202664  45.3589895837594  28.301947816871813  -16.814381656332166  25.037034871522533  0.000000
0.5459999999999998  0.000000  0.000000  0.000000  -27.79707857458311  2.9116414876450403  -4.426660888096235  58.51246209991694  12.309236586345623  -0.13242524674598574  46.40298733030571  30.517974949148655  -19.890438654035165  25.16203615369991  0.000000
0.5849999999999997  0.000000  0.000000  0.000000  -27.33582275687141  3.105183581948829  -3.337936548755886  58.85814226668173  12.339017007972139  -0.3464298042509418  47.21506536010107  32.70438122003253  -22.79207545140265  25.265360911031088  0.000000
0.6239999999999998  0.000000  0.000000  0.000000  -26.828014236767366  3.336978329294712  -2.0660868374305985  59.15849995091998  12.320420859728829  -0.6353859656131717  47.91273973669669  34.837247794298015  -25.62911912475146  25.332088368026515  0.000000
0.6629999999999998  0.000000  0.000000  0.000000  -26.318497808184176  3.612255935551197  -0.616026178174752  59.394462511129774  12.245618857355199  -0.9962435584193152  48.591572301868325  36.90573141374608  -28.492716992969868  25.354957543386185  0.000000
0.7019999999999997  0.000000  0.000000  0.000000  -25.837217138236305  3.9320302419889273  1.0009503345976771  59.55803871775111  12.111557404310483  -1.4183399496576743  49.29787257642441  38.905490923950104  -31.408561191104763  25.33060262954194  0.000000
0.7409999999999998  0.000000  0.000000  0.000000  -25.391665580969388  4.292491317326966  2.7692672614326583  59.65591875505134  11.921373186272932  -1.8832193690993189  50.01994591295306  40.83166088299553  -34.31761474917396  25.258189597005124  0.000000
0.7799999999999997  0.000000  0.000000  0.000000  -24.973308725919694  4.685642856450307  4.6688442626757585  59.7057010105742  11.682734857438566  -2.3659541901935657  50.70451902694108  42.67398017110324  -37.09806165782112  25.140709383860493  0.000000
0.8189999999999997  0.000000  0.000000  0.000000  -24.571354725643328  5.101836663760511  6.670802542088535  59.727342982574825  11.404172619188895  -2.8369072114223726  51.2861829738586  44.41711718678978  -39.61671736451534  24.988677141947168  0.000000
0.8579999999999997  0.000000  0.000000  0.000000  -24.18559405999758  5.532691009703158  8.73355444773596  59.736179896686764  11.09330019878606  -3.2637722242717846  51.71389658074228  46.04425187900553  -41.776810113912795  24.822051129845253  0.000000
0.8969999999999997  0.000000  0.000000  0.000000  -23.830600400984594  5.97337760786896  10.803479378981697  59.74111588297443  10.758122461116567  -3.6141383593606426  51.961608659092725  47.54174657654727  -43.536965404692616  24.668176265256093  0.000000
0.9359999999999997  0.000000  0.000000  0.000000  -23.53269118591124  6.422530911542311  12.821867653270916  59.748100936850896  10.41067902349208  -3.8587435091409685  52.026795416233206  48.90254291033972  -44.90328419099982  24.552971759360315  0.000000
0.9749999999999996  0.000000  0.000000  0.000000  -23.322643531629126  6.880182097310694  14.733811599069451  59.7648505849209  10.069096683411514  -3.9741791215127416  51.92284607642753  50.129099107033504  -45.91183450945814  24.489843553366686  0.000000
1.0139999999999996  0.000000  0.000000  0.000000  -23.22849866127765  7.345776319745258  16.49541795345152  59.80244683207601  9.756603899252095  -3.944747647088718  51.67358263983839  51.23357319310151  -46.61692943979358  24.473421832563627  0.000000
1.0529999999999997  0.000000  0.000000  0.000000  -23.27076799573306  7.818422598647376  18.076598548930665  59.87235463921548  9.497381126254721  -3.762469094856478  51.31042540357556  52.234567406314106  -47.084800641437845  24.483977309313392  0.000000
1.0919999999999996  0.000000  0.000000  0.000000  -23.45976960128722  8.298155583696222  19.461052872124203  59.98045952785152  9.312886539166072  -3.4274552216082506  50.87199623116373  53.15029802312212  -47.388824681312244  24.499002801658236  0.000000
1.1309999999999996  0.000000  0.000000  0.000000  -23.795013379332037  8.786805174964904  20.644978311907483  60.122519320262924  9.21954748174664  -2.947602468395589  50.402717289758  53.9926831951567  -47.60193426871621  24.502693822353482  0.000000
1.1699999999999995  0.000000  0.000000  0.000000  -24.265723669594557  9.287260752376936  21.635313108248187  60.28565052294546  9.226820259841016  -2.3373323727769786  49.94515709954844  54.766092631901046  -47.784903632236954  24.487349552565924  0.000000
1.2089999999999996  0.000000  0.000000  0.000000  -24.85183989006698  9.80092991153258  22.448596235970726  60.453903076772775  9.336811103650973  -1.6153996151160188  49.53039476756908  55.470322044063735  -47.972891777439436  24.447653531586013  0.000000
1.2479999999999996  0.000000  0.000000  0.000000  -25.525924187426973  10.326204080692058  23.109115557001612  60.615398583630714  9.543832009654372  -0.8018732828058956  49.16864521988198  56.105566590554346  -48.16428170200002  24.37419358348626  0.000000
1.2869999999999995  0.000000  0.000000  0.000000  -26.256583655419814  10.857426887755977  23.646227544579478  60.765476959177164  9.835671329043969  0.08316286978972816  48.84948104010045  56.67541356205597  -48.32262270966301  24.25245787209458  0.000000
1.3259999999999996  0.000000  0.000000  0.000000  -27.01189951583913  11.384609430929217  24.089665126556934  60.90463029779231  10.195712849090096  1.017922647424846  48.55113480545022  57.18665024687591  -48.397618379598455  24.069233528249246  0.000000
1.3649999999999995  0.000000  0.000000  0.000000  -27.762817318479996  11.895096107862392  24.46385036013262  61.034936080704064  10.603711578978038  1.976811861988934  48.252552801712724  57.647401259717384  -48.35557178848416  23.822943785348123  0.000000
1.4039999999999995  0.000000  0.000000  0.000000  -28.4850814115378  12.375117233259173  24.783721774229644  61.15718849326312  11.037012123036822  2.9290636030939377  47.942927034622095  58.06438205785923  -48.20228420212888  23.53110550581237  0.000000
1.4429999999999994  0.000000  0.000000  0.000000  -29.15900294195669  12.811181704305438  25.05467146612544  61.270341814449296  11.47265296440893  3.8403145529902485  47.62466760023277  58.44094679973331  -47.98147134192003  23.22683544932921  0.000000
1.4819999999999995  0.000000  0.000000  0.000000  -29.767828171523174  13.191657636198638  25.276373334247072  61.37250700865961  11.890198697010458  4.677019029147643  47.310975840627265  58.7762503023007  -47.75188117489963  22.94418443786488  0.000000
1.5209999999999995  0.000000  0.000000  0.000000  -30.29570030819362  13.507780901432286  25.447554000011888  61.46240381640636  12.273516027107902  5.4114917965973355  47.02148736701121  59.066167240509266  -47.5603847208478  22.70183245776972  0.000000
1.5599999999999994  0.000000  0.000000  0.000000  -30.726808157131412  13.754202161401967  25.568424598371394  61.540028622594434  12.610653296862356  6.024532568604808  46.77799689139277  59.30483065235353  -47.428079360867116  22.496636615338936  0.000000
1.5989999999999995  0.000000  0.000000  0.000000  -31.04707069621524  13.929181990581323  25.640237621684268  61.60576748198355  12.892396160067282  6.5043410923623854  46.601033613725406  59.48563463354574  -47.35240857915985  22.312172262470913  0.000000
1.6379999999999995  0.000000  0.000000  0.000000  -31.248028151741803  14.034326533817095  25.663379742711633  61.658191357811674  13.11085807359532  6.842546973896224  46.50669517001125  59.60093327963045  -47.31640769136296  22.135978072916757  0.000000
1.6769999999999994  0.000000  0.000000  0.000000  -31.33056024019728  14.074318108687848  25.635681105121563  61.69246118604327  13.258997197393995  7.031330782880483  46.50349986426161  59.641694061349504  -47.295115589581734  21.97242858779345  0.000000
1.7159999999999993  0.000000  0.000000  0.000000  -31.304334434682318  14.055498838988557  25.55273963596292  61.700703683804086  13.331141673357639  7.0627638985083925  46.589214074105016  59.59764322491018  -47.25814486401587  21.84212126396552  0.000000
1.7549999999999994  0.000000  0.000000  0.000000  -31.183497235612645  13.9829567124098  25.410354550307495  61.67505987617326  13.324207743185456  6.930775569154754  46.749947062605884  59.458509372037526  -47.17097397742851  21.769708684815313  0.000000
